<svg width="26" height="26" viewBox="0 0 26 26" fill="none" xmlns="http://www.w3.org/2000/svg">
<g clip-path="url(#clip0_258_116)">
<path fill-rule="evenodd" clip-rule="evenodd" d="M13 26C20.1797 26 26 20.1797 26 13C26 5.8203 20.1797 0 13 0C5.8203 0 0 5.8203 0 13C0 20.1797 5.8203 26 13 26Z" fill="#333333"/>
<path d="M13 6.5C10.769 6.5 8.96118 8.31797 8.96118 10.5625C8.96118 14.4422 13 19.5 13 19.5C13 19.5 17.0388 14.4422 17.0388 10.5625C17.0388 8.31797 15.231 6.5 13 6.5ZM13 12.5328C11.9437 12.5328 11.0906 11.6729 11.0906 10.6133C11.0906 9.55365 11.9471 8.69036 13 8.69036C14.0562 8.69036 14.9094 9.55026 14.9094 10.6133C14.9094 11.6729 14.0562 12.5328 13 12.5328Z" fill="white"/>
</g>
<defs>
<clipPath id="clip0_258_116">
<rect width="26" height="26" fill="white"/>
</clipPath>
</defs>
</svg>
