<svg width="26" height="26" viewBox="0 0 26 26" fill="none" xmlns="http://www.w3.org/2000/svg">
<g clip-path="url(#clip0_258_124)">
<path fill-rule="evenodd" clip-rule="evenodd" d="M13 26C20.1797 26 26 20.1797 26 13C26 5.8203 20.1797 0 13 0C5.8203 0 0 5.8203 0 13C0 20.1797 5.8203 26 13 26Z" fill="#333333"/>
<path d="M18.4131 15.6914C17.9189 15.1836 16.5139 14.2323 15.5931 14.2323C15.3798 14.2323 15.1936 14.2797 15.0413 14.3779C14.591 14.6656 14.2322 14.8891 14.0595 14.8891C13.9647 14.8891 13.8631 14.8044 13.6397 14.6115L13.6025 14.5776C12.9829 14.0393 12.8509 13.9005 12.6105 13.65L12.5496 13.5857C12.5056 13.5417 12.4683 13.501 12.4311 13.4638C12.2212 13.2471 12.0689 13.0914 11.5306 12.482L11.5069 12.4549C11.2496 12.1638 11.0803 11.9742 11.0702 11.8354C11.06 11.7 11.1785 11.4799 11.4798 11.0703C11.8454 10.576 11.859 9.96666 11.5238 9.25911C11.2564 8.70051 10.8197 8.16562 10.4337 7.69504L10.3999 7.65442C10.0681 7.24817 9.68215 7.04504 9.2522 7.04504C8.77486 7.04504 8.37876 7.30234 8.16887 7.43775C8.15194 7.44791 8.13501 7.46145 8.11809 7.47161C7.64751 7.76952 7.30559 8.17916 7.17694 8.59556C6.98397 9.22187 6.85533 10.0344 7.77955 11.7237C8.5785 13.1862 9.30298 14.168 10.454 15.3495C11.5374 16.4599 12.0181 16.8187 13.0947 17.5974C14.2931 18.4641 15.4441 18.9617 16.2499 18.9617C16.998 18.9617 17.5871 18.9617 18.4267 17.9495C19.3069 16.8865 18.9413 16.2365 18.4131 15.6914Z" fill="white"/>
</g>
<defs>
<clipPath id="clip0_258_124">
<rect width="26" height="26" fill="white"/>
</clipPath>
</defs>
</svg>
