<svg width="26" height="26" viewBox="0 0 26 26" fill="none" xmlns="http://www.w3.org/2000/svg">
<g id="4801315_glass_magnifier_magnifying_search_searching_icon 1">
<g id="Layer 2">
<path id="Vector" d="M19.5 10.8333C19.5033 8.87452 18.843 6.97234 17.6267 5.43691C16.4104 3.90148 14.7098 2.82337 12.8022 2.37836C10.8946 1.93335 8.89256 2.14768 7.12239 2.98641C5.35223 3.82513 3.9184 5.23879 3.05467 6.99689C2.19094 8.755 1.94826 10.7538 2.3662 12.6676C2.78414 14.5813 3.83804 16.2969 5.35608 17.5349C6.87412 18.7728 8.76676 19.46 10.7254 19.4844C12.6841 19.5088 14.5932 18.8689 16.1416 17.6692L23.075 24.6025L24.6025 23.075L17.6691 16.1417C18.8516 14.6244 19.4957 12.7569 19.5 10.8333ZM10.8333 17.3333C9.54771 17.3333 8.291 16.9521 7.22208 16.2379C6.15316 15.5237 5.32004 14.5085 4.82807 13.3208C4.3361 12.1331 4.20738 10.8261 4.45818 9.56524C4.70899 8.30437 5.32805 7.14618 6.2371 6.23714C7.14614 5.32809 8.30433 4.70903 9.5652 4.45823C10.8261 4.20742 12.133 4.33614 13.3207 4.82811C14.5085 5.32008 15.5236 6.1532 16.2378 7.22212C16.9521 8.29104 17.3333 9.54775 17.3333 10.8333C17.3333 12.5572 16.6485 14.2105 15.4295 15.4295C14.2105 16.6485 12.5572 17.3333 10.8333 17.3333Z" fill="#333333"/>
</g>
</g>
</svg>
